<svg xmlns="http://www.w3.org/2000/svg" width="9.54" height="9.54" viewBox="0 0 9.54 9.54"><path d="M13.245,4.5H5.3a.794.794,0,0,0-.8.8v7.95a.794.794,0,0,0,.8.8h7.95a.794.794,0,0,0,.8-.8V5.3A.794.794,0,0,0,13.245,4.5Zm-1.3,3.341-1.893,1.9L8.619,11.178h0a.449.449,0,0,1-.288.137.435.435,0,0,1-.291-.142L6.646,9.782a.1.1,0,0,1,0-.142L7.089,9.2a.1.1,0,0,1,.139,0l1.1,1.1,3.031-3.053a.1.1,0,0,1,.07-.03h0a.09.09,0,0,1,.07.03l.435.45A.1.1,0,0,1,11.941,7.841Z" transform="translate(-4.5 -4.5)" fill="#b2936d"/></svg>